<mxfile host="app.diagrams.net" modified="2023-05-28T13:40:29.830Z" agent="Mozilla/5.0 (Windows NT 10.0; Win64; x64) AppleWebKit/537.36 (KHTML, like Gecko) Chrome/113.0.0.0 Safari/537.36" etag="N5gpoBaOya1fEFRmWQro" version="21.3.4" type="github">
  <diagram id="kgpKYQtTHZ0yAKxKKP6v" name="Page-1">
    <mxGraphModel dx="2791" dy="1080" grid="0" gridSize="10" guides="1" tooltips="1" connect="1" arrows="1" fold="1" page="0" pageScale="1" pageWidth="850" pageHeight="1100" math="0" shadow="0">
      <root>
        <mxCell id="0" />
        <mxCell id="1" parent="0" />
        <mxCell id="URYwVNrUgEZEMo52fLb3-75" value="&amp;nbsp;仿真模块" style="rounded=0;whiteSpace=wrap;html=1;fontSize=24;align=left;verticalAlign=top;fillColor=#d0cee2;strokeColor=#56517e;shadow=0;sketch=1;movable=0;resizable=0;rotatable=0;deletable=0;editable=0;locked=1;connectable=0;" parent="1" vertex="1">
          <mxGeometry x="-92.5" y="796" width="631" height="106" as="geometry" />
        </mxCell>
        <mxCell id="URYwVNrUgEZEMo52fLb3-76" value="PHY层" style="rounded=0;whiteSpace=wrap;html=1;fontSize=24;fillColor=#b1ddf0;strokeColor=#10739e;shadow=0;sketch=1;movable=0;resizable=0;rotatable=0;deletable=0;editable=0;locked=1;connectable=0;" parent="1" vertex="1">
          <mxGeometry x="347.5" y="834" width="180" height="60" as="geometry" />
        </mxCell>
        <mxCell id="URYwVNrUgEZEMo52fLb3-77" value="MAC层" style="rounded=0;whiteSpace=wrap;html=1;fontSize=24;fillColor=#b1ddf0;strokeColor=#10739e;shadow=0;sketch=1;movable=0;resizable=0;rotatable=0;deletable=0;editable=0;locked=1;connectable=0;" parent="1" vertex="1">
          <mxGeometry x="133" y="834" width="180" height="60" as="geometry" />
        </mxCell>
        <mxCell id="URYwVNrUgEZEMo52fLb3-78" value="Mesh层" style="rounded=0;whiteSpace=wrap;html=1;fontSize=24;fillColor=#b1ddf0;strokeColor=#10739e;shadow=0;sketch=1;movable=0;resizable=0;rotatable=0;deletable=0;editable=0;locked=1;connectable=0;" parent="1" vertex="1">
          <mxGeometry x="-81.5" y="834" width="180" height="60" as="geometry" />
        </mxCell>
        <mxCell id="URYwVNrUgEZEMo52fLb3-79" value="NS3实时仿真引擎" style="rounded=0;whiteSpace=wrap;html=1;fontSize=24;sketch=1;fillColor=#fad7ac;strokeColor=#b46504;movable=1;resizable=1;rotatable=1;deletable=1;editable=1;locked=0;connectable=1;" parent="1" vertex="1">
          <mxGeometry x="-91.5" y="933" width="635" height="75" as="geometry" />
        </mxCell>
        <mxCell id="URYwVNrUgEZEMo52fLb3-80" value="&amp;nbsp;通信模块" style="rounded=0;whiteSpace=wrap;html=1;fontSize=24;align=left;verticalAlign=top;fillColor=#d0cee2;strokeColor=#56517e;shadow=0;sketch=1;movable=0;resizable=0;rotatable=0;deletable=0;editable=0;locked=1;connectable=0;" parent="1" vertex="1">
          <mxGeometry x="-94" y="581" width="636" height="191" as="geometry" />
        </mxCell>
        <mxCell id="URYwVNrUgEZEMo52fLb3-81" value="仿真事件&lt;br&gt;探针" style="rounded=0;whiteSpace=wrap;html=1;fontSize=24;fillColor=#b1ddf0;strokeColor=#10739e;shadow=0;sketch=1;movable=0;resizable=0;rotatable=0;deletable=0;editable=0;locked=1;connectable=0;" parent="1" vertex="1">
          <mxGeometry x="-16.5" y="683.9" width="144" height="72" as="geometry" />
        </mxCell>
        <mxCell id="URYwVNrUgEZEMo52fLb3-82" value="&amp;nbsp;代理服务" style="rounded=0;whiteSpace=wrap;html=1;fontSize=24;sketch=1;fillColor=#ffcccc;strokeColor=#36393d;align=left;verticalAlign=top;shadow=0;movable=0;resizable=0;rotatable=0;deletable=0;editable=0;locked=1;connectable=0;" parent="1" vertex="1">
          <mxGeometry x="-95" y="388" width="620" height="150" as="geometry" />
        </mxCell>
        <mxCell id="URYwVNrUgEZEMo52fLb3-83" value="协议代理" style="rounded=0;whiteSpace=wrap;html=1;fontSize=24;fillColor=#ffff88;strokeColor=#36393d;shadow=0;sketch=1;movable=0;resizable=0;rotatable=0;deletable=0;editable=0;locked=1;connectable=0;" parent="1" vertex="1">
          <mxGeometry x="122" y="448" width="180" height="60" as="geometry" />
        </mxCell>
        <mxCell id="URYwVNrUgEZEMo52fLb3-84" value="数据缓存" style="rounded=0;whiteSpace=wrap;html=1;fontSize=24;fillColor=#ffff88;strokeColor=#36393d;shadow=0;sketch=1;movable=0;resizable=0;rotatable=0;deletable=0;editable=0;locked=1;connectable=0;" parent="1" vertex="1">
          <mxGeometry x="330" y="448" width="180" height="60" as="geometry" />
        </mxCell>
        <mxCell id="URYwVNrUgEZEMo52fLb3-85" value="结果分析" style="rounded=0;whiteSpace=wrap;html=1;fontSize=24;fillColor=#ffff88;strokeColor=#36393d;shadow=0;sketch=1;movable=0;resizable=0;rotatable=0;deletable=0;editable=0;locked=1;connectable=0;" parent="1" vertex="1">
          <mxGeometry x="-82" y="448" width="180" height="60" as="geometry" />
        </mxCell>
        <mxCell id="URYwVNrUgEZEMo52fLb3-86" value="" style="rounded=0;whiteSpace=wrap;html=1;fontSize=24;sketch=1;fillColor=#bac8d3;strokeColor=#23445d;align=center;verticalAlign=middle;shadow=0;movable=0;resizable=0;rotatable=0;deletable=0;editable=0;locked=1;connectable=0;" parent="1" vertex="1">
          <mxGeometry x="-94" y="170" width="620" height="175" as="geometry" />
        </mxCell>
        <mxCell id="URYwVNrUgEZEMo52fLb3-87" value="" style="endArrow=none;dashed=1;html=1;rounded=0;fontSize=24;strokeWidth=4;fillColor=#b0e3e6;strokeColor=#0e8088;movable=0;resizable=0;rotatable=0;deletable=0;editable=0;locked=1;connectable=0;" parent="1" edge="1">
          <mxGeometry width="50" height="50" relative="1" as="geometry">
            <mxPoint x="525" y="359" as="sourcePoint" />
            <mxPoint x="-225" y="359" as="targetPoint" />
          </mxGeometry>
        </mxCell>
        <mxCell id="URYwVNrUgEZEMo52fLb3-88" value="" style="endArrow=none;dashed=1;html=1;rounded=0;fontSize=24;strokeWidth=4;fillColor=#b0e3e6;strokeColor=#0e8088;movable=0;resizable=0;rotatable=0;deletable=0;editable=0;locked=1;connectable=0;" parent="1" edge="1">
          <mxGeometry width="50" height="50" relative="1" as="geometry">
            <mxPoint x="528" y="567" as="sourcePoint" />
            <mxPoint x="-226" y="567" as="targetPoint" />
          </mxGeometry>
        </mxCell>
        <mxCell id="URYwVNrUgEZEMo52fLb3-89" value="" style="endArrow=none;dashed=1;html=1;rounded=0;fontSize=24;strokeWidth=4;fillColor=#b0e3e6;strokeColor=#0e8088;movable=0;resizable=0;rotatable=0;deletable=0;editable=0;locked=1;connectable=0;" parent="1" edge="1">
          <mxGeometry width="50" height="50" relative="1" as="geometry">
            <mxPoint x="550.75" y="919" as="sourcePoint" />
            <mxPoint x="-221.5" y="919" as="targetPoint" />
          </mxGeometry>
        </mxCell>
        <mxCell id="URYwVNrUgEZEMo52fLb3-90" value="Pixi 绘图组件" style="rounded=0;whiteSpace=wrap;html=1;fontSize=24;fillColor=#b1ddf0;strokeColor=#10739e;shadow=0;sketch=1;movable=0;resizable=0;rotatable=0;deletable=0;editable=0;locked=1;connectable=0;" parent="1" vertex="1">
          <mxGeometry x="85" y="176" width="270" height="60" as="geometry" />
        </mxCell>
        <mxCell id="URYwVNrUgEZEMo52fLb3-91" value="GRPC Client" style="rounded=0;whiteSpace=wrap;html=1;fontSize=24;fillColor=#b1ddf0;strokeColor=#10739e;shadow=0;sketch=1;movable=1;resizable=1;rotatable=1;deletable=1;editable=1;locked=0;connectable=1;" parent="1" vertex="1">
          <mxGeometry x="79" y="276" width="272" height="56" as="geometry" />
        </mxCell>
        <mxCell id="URYwVNrUgEZEMo52fLb3-92" value="&lt;font style=&quot;font-size: 24px;&quot;&gt;前端&lt;/font&gt;" style="text;html=1;strokeColor=none;fillColor=none;align=center;verticalAlign=middle;whiteSpace=wrap;rounded=0;shadow=0;sketch=1;fontSize=30;fontFamily=Lucida Console;movable=1;resizable=1;rotatable=1;deletable=1;editable=1;locked=0;connectable=1;" parent="1" vertex="1">
          <mxGeometry x="-238" y="246" width="110" height="30" as="geometry" />
        </mxCell>
        <mxCell id="URYwVNrUgEZEMo52fLb3-93" value="&lt;font style=&quot;font-size: 24px;&quot;&gt;后端&lt;/font&gt;" style="text;html=1;strokeColor=none;fillColor=none;align=center;verticalAlign=middle;whiteSpace=wrap;rounded=0;shadow=0;sketch=1;fontSize=30;fontFamily=Lucida Console;movable=1;resizable=1;rotatable=1;deletable=1;editable=1;locked=0;connectable=1;" parent="1" vertex="1">
          <mxGeometry x="-235" y="448" width="110" height="30" as="geometry" />
        </mxCell>
        <mxCell id="URYwVNrUgEZEMo52fLb3-94" value="&lt;font style=&quot;font-size: 24px;&quot;&gt;仿真&lt;/font&gt;" style="text;html=1;strokeColor=none;fillColor=none;align=center;verticalAlign=middle;whiteSpace=wrap;rounded=0;shadow=0;sketch=1;fontSize=30;fontFamily=Lucida Console;movable=1;resizable=1;rotatable=1;deletable=1;editable=1;locked=0;connectable=1;" parent="1" vertex="1">
          <mxGeometry x="-236" y="717" width="110" height="30" as="geometry" />
        </mxCell>
        <mxCell id="URYwVNrUgEZEMo52fLb3-95" value="&lt;font style=&quot;font-size: 24px;&quot;&gt;引擎&lt;/font&gt;" style="text;html=1;strokeColor=none;fillColor=none;align=center;verticalAlign=middle;whiteSpace=wrap;rounded=0;shadow=0;sketch=1;fontSize=30;fontFamily=Lucida Console;movable=1;resizable=1;rotatable=1;deletable=1;editable=1;locked=0;connectable=1;" parent="1" vertex="1">
          <mxGeometry x="-231.5" y="957.9000000000001" width="110" height="30" as="geometry" />
        </mxCell>
        <mxCell id="URYwVNrUgEZEMo52fLb3-96" value="仿真参数&lt;br&gt;配置管理" style="rounded=0;whiteSpace=wrap;html=1;fontSize=24;fillColor=#b1ddf0;strokeColor=#10739e;shadow=0;sketch=1;movable=0;resizable=0;rotatable=0;deletable=0;editable=0;locked=1;connectable=0;" parent="1" vertex="1">
          <mxGeometry x="289" y="683.9" width="144" height="72" as="geometry" />
        </mxCell>
        <mxCell id="URYwVNrUgEZEMo52fLb3-97" value="TCP Server" style="rounded=0;whiteSpace=wrap;html=1;fontSize=24;fillColor=#b1ddf0;strokeColor=#10739e;shadow=0;sketch=1;movable=0;resizable=0;rotatable=0;deletable=0;editable=0;locked=1;connectable=0;" parent="1" vertex="1">
          <mxGeometry x="111" y="595" width="206" height="60" as="geometry" />
        </mxCell>
        <mxCell id="URYwVNrUgEZEMo52fLb3-98" value="" style="group;movable=0;resizable=0;rotatable=0;deletable=0;editable=0;locked=1;connectable=0;" parent="1" vertex="1" connectable="0">
          <mxGeometry x="196.5" y="575" width="31" height="32" as="geometry" />
        </mxCell>
        <mxCell id="URYwVNrUgEZEMo52fLb3-99" value="" style="group;fillColor=#97D077;strokeColor=#97D077;container=0;strokeWidth=3;movable=0;resizable=0;rotatable=0;deletable=0;editable=0;locked=1;connectable=0;" parent="URYwVNrUgEZEMo52fLb3-98" vertex="1" connectable="0">
          <mxGeometry width="31" height="32" as="geometry" />
        </mxCell>
        <mxCell id="URYwVNrUgEZEMo52fLb3-100" value="" style="rounded=0;whiteSpace=wrap;html=1;container=0;strokeColor=#97D077;strokeWidth=3;movable=0;resizable=0;rotatable=0;deletable=0;editable=0;locked=1;connectable=0;" parent="URYwVNrUgEZEMo52fLb3-98" vertex="1">
          <mxGeometry width="31" height="32" as="geometry" />
        </mxCell>
        <mxCell id="URYwVNrUgEZEMo52fLb3-101" value="" style="endArrow=none;html=1;rounded=0;exitX=0;exitY=0;exitDx=0;exitDy=0;endFill=0;strokeColor=#97D077;strokeWidth=3;movable=0;resizable=0;rotatable=0;deletable=0;editable=0;locked=1;connectable=0;" parent="URYwVNrUgEZEMo52fLb3-98" source="URYwVNrUgEZEMo52fLb3-100" edge="1">
          <mxGeometry width="50" height="50" relative="1" as="geometry">
            <mxPoint x="5.535714285714284" y="129.18518518518522" as="sourcePoint" />
            <mxPoint x="29.892857142857135" y="32" as="targetPoint" />
            <Array as="points">
              <mxPoint x="16.60714285714286" y="16.59259259259261" />
            </Array>
          </mxGeometry>
        </mxCell>
        <mxCell id="URYwVNrUgEZEMo52fLb3-102" style="rounded=0;orthogonalLoop=1;jettySize=auto;html=1;exitX=0;exitY=1;exitDx=0;exitDy=0;entryX=1;entryY=0;entryDx=0;entryDy=0;endArrow=none;endFill=0;strokeColor=#97D077;strokeWidth=3;movable=0;resizable=0;rotatable=0;deletable=0;editable=0;locked=1;connectable=0;" parent="URYwVNrUgEZEMo52fLb3-98" source="URYwVNrUgEZEMo52fLb3-100" target="URYwVNrUgEZEMo52fLb3-100" edge="1">
          <mxGeometry relative="1" as="geometry" />
        </mxCell>
        <mxCell id="URYwVNrUgEZEMo52fLb3-103" value="" style="group;movable=0;resizable=0;rotatable=0;deletable=0;editable=0;locked=1;connectable=0;" parent="1" vertex="1" connectable="0">
          <mxGeometry x="196.5" y="499" width="31" height="32" as="geometry" />
        </mxCell>
        <mxCell id="URYwVNrUgEZEMo52fLb3-104" value="" style="group;fillColor=#97D077;strokeColor=#97D077;container=0;strokeWidth=3;movable=0;resizable=0;rotatable=0;deletable=0;editable=0;locked=1;connectable=0;" parent="URYwVNrUgEZEMo52fLb3-103" vertex="1" connectable="0">
          <mxGeometry width="31" height="32" as="geometry" />
        </mxCell>
        <mxCell id="URYwVNrUgEZEMo52fLb3-105" value="" style="rounded=0;whiteSpace=wrap;html=1;container=0;strokeColor=#97D077;strokeWidth=3;movable=0;resizable=0;rotatable=0;deletable=0;editable=0;locked=1;connectable=0;" parent="URYwVNrUgEZEMo52fLb3-103" vertex="1">
          <mxGeometry width="31" height="32" as="geometry" />
        </mxCell>
        <mxCell id="URYwVNrUgEZEMo52fLb3-106" value="" style="endArrow=none;html=1;rounded=0;exitX=0;exitY=0;exitDx=0;exitDy=0;endFill=0;strokeColor=#97D077;strokeWidth=3;movable=0;resizable=0;rotatable=0;deletable=0;editable=0;locked=1;connectable=0;" parent="URYwVNrUgEZEMo52fLb3-103" source="URYwVNrUgEZEMo52fLb3-105" edge="1">
          <mxGeometry width="50" height="50" relative="1" as="geometry">
            <mxPoint x="5.535714285714284" y="129.18518518518522" as="sourcePoint" />
            <mxPoint x="29.892857142857135" y="32" as="targetPoint" />
            <Array as="points">
              <mxPoint x="16.60714285714286" y="16.59259259259261" />
            </Array>
          </mxGeometry>
        </mxCell>
        <mxCell id="URYwVNrUgEZEMo52fLb3-107" style="rounded=0;orthogonalLoop=1;jettySize=auto;html=1;exitX=0;exitY=1;exitDx=0;exitDy=0;entryX=1;entryY=0;entryDx=0;entryDy=0;endArrow=none;endFill=0;strokeColor=#97D077;strokeWidth=3;movable=0;resizable=0;rotatable=0;deletable=0;editable=0;locked=1;connectable=0;" parent="URYwVNrUgEZEMo52fLb3-103" source="URYwVNrUgEZEMo52fLb3-105" target="URYwVNrUgEZEMo52fLb3-105" edge="1">
          <mxGeometry relative="1" as="geometry" />
        </mxCell>
        <mxCell id="URYwVNrUgEZEMo52fLb3-125" style="edgeStyle=orthogonalEdgeStyle;rounded=0;sketch=0;orthogonalLoop=1;jettySize=auto;html=1;exitX=0.5;exitY=1;exitDx=0;exitDy=0;entryX=0.236;entryY=-0.007;entryDx=0;entryDy=0;shadow=0;strokeWidth=4;fontSize=11;startArrow=classic;startFill=1;endArrow=none;endFill=0;opacity=60;strokeColor=#6c8ebf;fillColor=#dae8fc;entryPerimeter=0;movable=0;resizable=0;rotatable=0;deletable=0;editable=0;locked=1;connectable=0;" parent="1" source="URYwVNrUgEZEMo52fLb3-81" target="URYwVNrUgEZEMo52fLb3-75" edge="1">
          <mxGeometry relative="1" as="geometry">
            <mxPoint x="-246" y="837" as="sourcePoint" />
            <mxPoint x="-186" y="837" as="targetPoint" />
          </mxGeometry>
        </mxCell>
        <mxCell id="URYwVNrUgEZEMo52fLb3-126" style="edgeStyle=orthogonalEdgeStyle;rounded=0;sketch=0;orthogonalLoop=1;jettySize=auto;html=1;exitX=0.5;exitY=1;exitDx=0;exitDy=0;shadow=0;strokeWidth=4;fontSize=11;startArrow=none;startFill=0;endArrow=classic;endFill=1;opacity=60;strokeColor=#6c8ebf;fillColor=#dae8fc;entryX=0.719;entryY=-0.028;entryDx=0;entryDy=0;entryPerimeter=0;movable=0;resizable=0;rotatable=0;deletable=0;editable=0;locked=1;connectable=0;" parent="1" source="URYwVNrUgEZEMo52fLb3-96" target="URYwVNrUgEZEMo52fLb3-75" edge="1">
          <mxGeometry relative="1" as="geometry">
            <mxPoint x="66" y="759" as="sourcePoint" />
            <mxPoint x="369.5" y="795" as="targetPoint" />
            <Array as="points">
              <mxPoint x="361.5" y="778" />
              <mxPoint x="361.5" y="778" />
            </Array>
          </mxGeometry>
        </mxCell>
        <mxCell id="URYwVNrUgEZEMo52fLb3-128" style="rounded=0;sketch=0;orthogonalLoop=1;jettySize=auto;html=1;exitX=0.5;exitY=1;exitDx=0;exitDy=0;shadow=0;strokeWidth=4;fontSize=11;startArrow=classic;startFill=1;endArrow=classic;endFill=1;opacity=60;strokeColor=#6c8ebf;fillColor=#dae8fc;entryX=0.5;entryY=0;entryDx=0;entryDy=0;movable=0;resizable=0;rotatable=0;deletable=0;editable=0;locked=1;connectable=0;" parent="1" source="URYwVNrUgEZEMo52fLb3-105" target="URYwVNrUgEZEMo52fLb3-100" edge="1">
          <mxGeometry relative="1" as="geometry">
            <mxPoint x="-245" y="828" as="sourcePoint" />
            <mxPoint x="215" y="567" as="targetPoint" />
          </mxGeometry>
        </mxCell>
        <mxCell id="URYwVNrUgEZEMo52fLb3-129" style="rounded=0;sketch=0;orthogonalLoop=1;jettySize=auto;html=1;exitX=0;exitY=1;exitDx=0;exitDy=0;entryX=0.5;entryY=0;entryDx=0;entryDy=0;shadow=0;strokeWidth=4;fontSize=11;startArrow=classic;startFill=1;endArrow=none;endFill=0;opacity=60;strokeColor=#6c8ebf;fillColor=#dae8fc;movable=0;resizable=0;rotatable=0;deletable=0;editable=0;locked=1;connectable=0;" parent="1" source="URYwVNrUgEZEMo52fLb3-97" target="URYwVNrUgEZEMo52fLb3-81" edge="1">
          <mxGeometry relative="1" as="geometry">
            <mxPoint x="65.5" y="766" as="sourcePoint" />
            <mxPoint x="66.5" y="805" as="targetPoint" />
          </mxGeometry>
        </mxCell>
        <mxCell id="URYwVNrUgEZEMo52fLb3-130" style="rounded=0;sketch=0;orthogonalLoop=1;jettySize=auto;html=1;exitX=1;exitY=1;exitDx=0;exitDy=0;shadow=0;strokeWidth=4;fontSize=11;startArrow=none;startFill=0;endArrow=classic;endFill=1;opacity=60;strokeColor=#6c8ebf;fillColor=#dae8fc;entryX=0.5;entryY=0;entryDx=0;entryDy=0;movable=0;resizable=0;rotatable=0;deletable=0;editable=0;locked=1;connectable=0;" parent="1" source="URYwVNrUgEZEMo52fLb3-97" target="URYwVNrUgEZEMo52fLb3-96" edge="1">
          <mxGeometry relative="1" as="geometry">
            <mxPoint x="390.5" y="766" as="sourcePoint" />
            <mxPoint x="391.5" y="803" as="targetPoint" />
          </mxGeometry>
        </mxCell>
        <mxCell id="URYwVNrUgEZEMo52fLb3-131" value="&lt;span style=&quot;font-size: 30px;&quot;&gt;GRPC&lt;/span&gt;" style="text;html=1;strokeColor=none;fillColor=none;align=center;verticalAlign=middle;whiteSpace=wrap;rounded=0;shadow=0;sketch=1;fontSize=30;fontFamily=Lucida Console;movable=0;resizable=0;rotatable=0;deletable=0;editable=0;locked=1;connectable=0;" parent="1" vertex="1">
          <mxGeometry x="-127.5" y="1090.75" width="111" height="34.5" as="geometry" />
        </mxCell>
        <mxCell id="URYwVNrUgEZEMo52fLb3-132" value="" style="group;movable=0;resizable=0;rotatable=0;deletable=0;editable=0;locked=1;connectable=0;" parent="1" vertex="1" connectable="0">
          <mxGeometry x="-181" y="1087" width="46" height="42" as="geometry" />
        </mxCell>
        <mxCell id="URYwVNrUgEZEMo52fLb3-133" value="" style="group;fillColor=#97D077;strokeColor=#97D077;container=0;strokeWidth=3;movable=0;resizable=0;rotatable=0;deletable=0;editable=0;locked=1;connectable=0;" parent="URYwVNrUgEZEMo52fLb3-132" vertex="1" connectable="0">
          <mxGeometry width="46" height="42" as="geometry" />
        </mxCell>
        <mxCell id="URYwVNrUgEZEMo52fLb3-134" value="" style="rounded=0;whiteSpace=wrap;html=1;container=0;strokeColor=#97D077;strokeWidth=3;movable=0;resizable=0;rotatable=0;deletable=0;editable=0;locked=1;connectable=0;" parent="URYwVNrUgEZEMo52fLb3-132" vertex="1">
          <mxGeometry width="46" height="42" as="geometry" />
        </mxCell>
        <mxCell id="URYwVNrUgEZEMo52fLb3-135" value="" style="endArrow=none;html=1;rounded=0;exitX=0;exitY=0;exitDx=0;exitDy=0;endFill=0;strokeColor=#97D077;strokeWidth=3;movable=0;resizable=0;rotatable=0;deletable=0;editable=0;locked=1;connectable=0;" parent="URYwVNrUgEZEMo52fLb3-132" source="URYwVNrUgEZEMo52fLb3-134" edge="1">
          <mxGeometry width="50" height="50" relative="1" as="geometry">
            <mxPoint x="8.214285714285712" y="169.5555555555556" as="sourcePoint" />
            <mxPoint x="44.35714285714285" y="42" as="targetPoint" />
            <Array as="points">
              <mxPoint x="24.64285714285715" y="21.7777777777778" />
            </Array>
          </mxGeometry>
        </mxCell>
        <mxCell id="URYwVNrUgEZEMo52fLb3-136" style="rounded=0;orthogonalLoop=1;jettySize=auto;html=1;exitX=0;exitY=1;exitDx=0;exitDy=0;entryX=1;entryY=0;entryDx=0;entryDy=0;endArrow=none;endFill=0;strokeColor=#97D077;strokeWidth=3;movable=0;resizable=0;rotatable=0;deletable=0;editable=0;locked=1;connectable=0;" parent="URYwVNrUgEZEMo52fLb3-132" source="URYwVNrUgEZEMo52fLb3-134" target="URYwVNrUgEZEMo52fLb3-134" edge="1">
          <mxGeometry relative="1" as="geometry" />
        </mxCell>
        <mxCell id="URYwVNrUgEZEMo52fLb3-145" style="rounded=0;sketch=0;orthogonalLoop=1;jettySize=auto;html=1;exitX=0.483;exitY=0.988;exitDx=0;exitDy=0;shadow=0;strokeWidth=4;fontSize=11;startArrow=classic;startFill=1;endArrow=classic;endFill=1;opacity=60;strokeColor=#6c8ebf;fillColor=#dae8fc;entryX=0.5;entryY=0;entryDx=0;entryDy=0;exitPerimeter=0;movable=0;resizable=0;rotatable=0;deletable=0;editable=0;locked=1;connectable=0;" parent="1" source="URYwVNrUgEZEMo52fLb3-90" target="URYwVNrUgEZEMo52fLb3-91" edge="1">
          <mxGeometry relative="1" as="geometry">
            <mxPoint x="219.67999999999984" y="241" as="sourcePoint" />
            <mxPoint x="219.67999999999984" y="285" as="targetPoint" />
          </mxGeometry>
        </mxCell>
        <mxCell id="URYwVNrUgEZEMo52fLb3-147" value="" style="group;movable=0;resizable=0;rotatable=0;deletable=0;editable=0;locked=1;connectable=0;" parent="1" vertex="1" connectable="0">
          <mxGeometry x="196" y="425" width="31" height="32" as="geometry" />
        </mxCell>
        <mxCell id="URYwVNrUgEZEMo52fLb3-148" value="" style="group;fillColor=#97D077;strokeColor=#97D077;container=0;strokeWidth=3;movable=0;resizable=0;rotatable=0;deletable=0;editable=0;locked=1;connectable=0;" parent="URYwVNrUgEZEMo52fLb3-147" vertex="1" connectable="0">
          <mxGeometry width="31" height="32" as="geometry" />
        </mxCell>
        <mxCell id="URYwVNrUgEZEMo52fLb3-149" value="" style="rounded=0;whiteSpace=wrap;html=1;container=0;strokeColor=#97D077;strokeWidth=3;movable=0;resizable=0;rotatable=0;deletable=0;editable=0;locked=1;connectable=0;" parent="URYwVNrUgEZEMo52fLb3-147" vertex="1">
          <mxGeometry width="31" height="32" as="geometry" />
        </mxCell>
        <mxCell id="URYwVNrUgEZEMo52fLb3-150" value="" style="endArrow=none;html=1;rounded=0;exitX=0;exitY=0;exitDx=0;exitDy=0;endFill=0;strokeColor=#97D077;strokeWidth=3;movable=0;resizable=0;rotatable=0;deletable=0;editable=0;locked=1;connectable=0;" parent="URYwVNrUgEZEMo52fLb3-147" source="URYwVNrUgEZEMo52fLb3-149" edge="1">
          <mxGeometry width="50" height="50" relative="1" as="geometry">
            <mxPoint x="5.535714285714284" y="129.18518518518522" as="sourcePoint" />
            <mxPoint x="29.892857142857135" y="32" as="targetPoint" />
            <Array as="points">
              <mxPoint x="16.60714285714286" y="16.59259259259261" />
            </Array>
          </mxGeometry>
        </mxCell>
        <mxCell id="URYwVNrUgEZEMo52fLb3-151" style="rounded=0;orthogonalLoop=1;jettySize=auto;html=1;exitX=0;exitY=1;exitDx=0;exitDy=0;entryX=1;entryY=0;entryDx=0;entryDy=0;endArrow=none;endFill=0;strokeColor=#97D077;strokeWidth=3;movable=0;resizable=0;rotatable=0;deletable=0;editable=0;locked=1;connectable=0;" parent="URYwVNrUgEZEMo52fLb3-147" source="URYwVNrUgEZEMo52fLb3-149" target="URYwVNrUgEZEMo52fLb3-149" edge="1">
          <mxGeometry relative="1" as="geometry" />
        </mxCell>
        <mxCell id="URYwVNrUgEZEMo52fLb3-152" value="" style="group;movable=0;resizable=0;rotatable=0;deletable=0;editable=0;locked=1;connectable=0;" parent="1" vertex="1" connectable="0">
          <mxGeometry x="196" y="322" width="31" height="32" as="geometry" />
        </mxCell>
        <mxCell id="URYwVNrUgEZEMo52fLb3-153" value="" style="group;fillColor=#97D077;strokeColor=#97D077;container=0;strokeWidth=3;movable=0;resizable=0;rotatable=0;deletable=0;editable=0;locked=1;connectable=0;" parent="URYwVNrUgEZEMo52fLb3-152" vertex="1" connectable="0">
          <mxGeometry width="31" height="32" as="geometry" />
        </mxCell>
        <mxCell id="URYwVNrUgEZEMo52fLb3-154" value="" style="rounded=0;whiteSpace=wrap;html=1;container=0;strokeColor=#97D077;strokeWidth=3;movable=0;resizable=0;rotatable=0;deletable=0;editable=0;locked=1;connectable=0;" parent="URYwVNrUgEZEMo52fLb3-152" vertex="1">
          <mxGeometry width="31" height="32" as="geometry" />
        </mxCell>
        <mxCell id="URYwVNrUgEZEMo52fLb3-155" value="" style="endArrow=none;html=1;rounded=0;exitX=0;exitY=0;exitDx=0;exitDy=0;endFill=0;strokeColor=#97D077;strokeWidth=3;movable=0;resizable=0;rotatable=0;deletable=0;editable=0;locked=1;connectable=0;" parent="URYwVNrUgEZEMo52fLb3-152" source="URYwVNrUgEZEMo52fLb3-154" edge="1">
          <mxGeometry width="50" height="50" relative="1" as="geometry">
            <mxPoint x="5.535714285714284" y="129.18518518518522" as="sourcePoint" />
            <mxPoint x="29.892857142857135" y="32" as="targetPoint" />
            <Array as="points">
              <mxPoint x="16.60714285714286" y="16.59259259259261" />
            </Array>
          </mxGeometry>
        </mxCell>
        <mxCell id="URYwVNrUgEZEMo52fLb3-156" style="rounded=0;orthogonalLoop=1;jettySize=auto;html=1;exitX=0;exitY=1;exitDx=0;exitDy=0;entryX=1;entryY=0;entryDx=0;entryDy=0;endArrow=none;endFill=0;strokeColor=#97D077;strokeWidth=3;movable=0;resizable=0;rotatable=0;deletable=0;editable=0;locked=1;connectable=0;" parent="URYwVNrUgEZEMo52fLb3-152" source="URYwVNrUgEZEMo52fLb3-154" target="URYwVNrUgEZEMo52fLb3-154" edge="1">
          <mxGeometry relative="1" as="geometry" />
        </mxCell>
        <mxCell id="URYwVNrUgEZEMo52fLb3-157" style="rounded=0;sketch=0;orthogonalLoop=1;jettySize=auto;html=1;exitX=0.5;exitY=1;exitDx=0;exitDy=0;shadow=0;strokeWidth=4;fontSize=11;startArrow=classic;startFill=1;endArrow=classic;endFill=1;opacity=60;strokeColor=#6c8ebf;fillColor=#dae8fc;entryX=0.5;entryY=0;entryDx=0;entryDy=0;movable=0;resizable=0;rotatable=0;deletable=0;editable=0;locked=1;connectable=0;" parent="1" source="URYwVNrUgEZEMo52fLb3-154" target="URYwVNrUgEZEMo52fLb3-149" edge="1">
          <mxGeometry relative="1" as="geometry">
            <mxPoint x="-236.5" y="651" as="sourcePoint" />
            <mxPoint x="223.5" y="390" as="targetPoint" />
          </mxGeometry>
        </mxCell>
      </root>
    </mxGraphModel>
  </diagram>
</mxfile>
